<svg width="7" height="12" viewBox="0 0 7 12" fill="none" xmlns="http://www.w3.org/2000/svg">
<path d="M2.83289 6.59169C2.75478 6.51422 2.69279 6.42205 2.65048 6.3205C2.60817 6.21895 2.58639 6.11003 2.58639 6.00002C2.58639 5.89001 2.60817 5.78109 2.65048 5.67954C2.69279 5.57799 2.75478 5.48582 2.83289 5.40835L6.65789 1.59168C6.736 1.51421 6.79799 1.42204 6.8403 1.32049C6.88261 1.21894 6.90439 1.11002 6.90439 1.00001C6.90439 0.890001 6.88261 0.781079 6.8403 0.67953C6.79799 0.57798 6.736 0.485812 6.65789 0.408343C6.50176 0.253134 6.29055 0.166016 6.07039 0.166016C5.85024 0.166016 5.63903 0.253134 5.48289 0.408343L1.65789 4.23335C1.18972 4.7021 0.926758 5.33752 0.926758 6.00002C0.926758 6.66252 1.18972 7.29794 1.65789 7.76669L5.48289 11.5917C5.63811 11.7457 5.84761 11.8324 6.06622 11.8334C6.1759 11.834 6.28462 11.813 6.38615 11.7715C6.48768 11.73 6.58002 11.6689 6.65789 11.5917C6.736 11.5142 6.79799 11.4221 6.8403 11.3205C6.88261 11.219 6.90439 11.11 6.90439 11C6.90439 10.89 6.88261 10.7811 6.8403 10.6795C6.79799 10.578 6.736 10.4858 6.65789 10.4084L2.83289 6.59169Z" fill="#1D1E21" fill-opacity="0.5"/>
</svg>
